<?xml version="1.0" standalone="no"?>
<!DOCTYPE svg PUBLIC "-//W3C//DTD SVG 20010904//EN"
 "http://www.w3.org/TR/2001/REC-SVG-20010904/DTD/svg10.dtd">
<svg version="1.0" xmlns="http://www.w3.org/2000/svg"
 width="281.000000pt" height="281.000000pt" viewBox="0 0 281.000000 281.000000"
 preserveAspectRatio="xMidYMid meet">
<metadata>
Created by potrace 1.11, written by Peter Selinger 2001-2013
</metadata>
<g transform="translate(0.000000,281.000000) scale(0.100000,-0.100000)"
fill="#000000" stroke="none">
<path d="M1185 2745 c-282 -50 -518 -170 -721 -367 -206 -200 -325 -417 -385
-701 -31 -146 -31 -389 0 -536 55 -261 164 -469 345 -659 198 -207 431 -336
716 -398 117 -25 398 -26 523 -1 481 96 869 442 1025 912 49 148 57 212 57
430 0 176 -3 211 -24 290 -136 528 -523 906 -1046 1021 -101 22 -388 27 -490
9z m228 -111 c-11 -5 -10 -64 2 -101 3 -7 -4 -13 -13 -13 -15 0 -17 7 -15 38
l3 37 -18 -37 c-9 -21 -20 -38 -23 -38 -3 0 -13 15 -22 33 l-16 32 0 -32 c-1
-18 -4 -33 -9 -33 -4 0 -5 21 -3 46 2 32 -1 49 -10 55 -11 7 -10 9 3 9 11 0
26 -17 39 -42 24 -46 23 -47 49 25 6 16 17 27 27 26 10 0 13 -3 6 -5z m127
-32 c1 -9 7 -34 14 -54 12 -34 12 -38 -3 -38 -12 0 -17 8 -17 23 1 16 -5 23
-21 25 -21 3 -28 -6 -24 -30 0 -5 -6 -8 -13 -8 -11 0 -7 15 16 54 31 53 48 63
48 28z m145 -41 c10 -23 22 -41 27 -41 7 0 12 28 11 66 0 6 8 9 18 7 15 -4 16
-7 5 -19 -8 -7 -17 -32 -21 -54 -8 -47 -17 -44 -46 12 -16 31 -23 38 -30 27
-5 -8 -9 -24 -9 -36 0 -15 -6 -23 -16 -23 -14 0 -14 3 -4 15 7 8 13 35 14 59
1 37 4 42 17 36 8 -5 24 -27 34 -49z m-531 26 c23 -17 24 -64 2 -85 -16 -16
-17 -15 -6 9 15 32 0 65 -33 79 -21 8 -21 9 -1 9 11 1 28 -5 38 -12z m-69 -7
c-10 -17 17 -90 34 -91 12 0 11 -3 -4 -9 -33 -14 -40 -11 -40 18 -1 15 -4 42
-9 60 -6 26 -5 32 9 32 9 0 13 -4 10 -10z m750 -36 c-24 -24 -30 -76 -10 -90
26 -19 44 -6 58 42 10 34 15 41 27 34 9 -6 10 -10 3 -10 -6 0 -17 -16 -23 -35
-15 -47 -43 -62 -76 -40 -28 18 -28 20 -12 78 9 35 15 43 29 40 16 -4 16 -7 4
-19z m-848 10 c-3 -3 3 -26 14 -51 10 -24 19 -47 19 -50 0 -5 -2 -5 -62 21
-34 14 -38 14 -38 1 0 -8 9 -24 20 -35 11 -11 18 -20 16 -20 -2 0 -12 -3 -22
-7 -12 -4 -15 -3 -10 6 4 6 -4 32 -18 56 -28 51 -22 54 43 25 55 -25 54 -26
36 10 -9 17 -21 30 -28 30 -8 0 -7 4 3 10 16 11 37 14 27 4z m1031 -89 c4 -20
3 -20 -11 -1 -21 28 -38 13 -24 -23 14 -38 3 -61 -28 -61 -28 0 -44 25 -27 42
7 7 10 5 9 -8 -1 -10 6 -20 16 -22 20 -4 23 19 6 49 -8 15 -7 24 2 35 17 20
53 13 57 -11z m-1189 -34 c20 -15 43 -30 51 -33 11 -3 9 -8 -9 -17 -13 -7 -21
-8 -17 -3 8 13 -29 26 -45 16 -6 -3 -9 -17 -6 -30 2 -14 0 -27 -4 -30 -5 -3
-9 10 -9 29 0 19 -3 49 -6 66 -8 38 -2 39 45 2z m1303 -28 c10 -9 18 -23 18
-32 0 -10 -5 -7 -13 9 -26 52 -91 27 -85 -34 2 -26 8 -32 33 -36 21 -4 26 -8
17 -14 -22 -13 -66 26 -70 62 -5 51 60 81 100 45z m-575 -48 c213 -35 384
-125 539 -286 114 -119 191 -255 236 -420 20 -72 23 -107 22 -244 0 -145 -3
-169 -28 -250 -52 -174 -114 -281 -235 -408 -127 -133 -286 -225 -463 -267
-513 -123 -1020 183 -1154 696 -36 134 -38 317 -6 447 73 295 251 518 516 647
91 44 207 81 291 93 69 9 196 6 282 -8z m-922 -8 c-23 -18 -11 -39 19 -31 15
3 29 -1 40 -11 20 -20 20 -29 0 -49 -18 -18 -30 -20 -39 -6 -3 6 3 10 14 10
11 0 23 5 27 11 8 14 -16 31 -35 24 -25 -10 -51 5 -51 29 0 27 8 36 29 36 12
0 11 -3 -4 -13z m1619 -72 c-4 -8 -15 -15 -25 -15 -19 0 -24 -13 -20 -60 1
-20 -1 -22 -9 -10 -5 8 -10 30 -10 48 0 35 -19 44 -27 12 -4 -15 -9 -18 -18
-10 -10 9 -6 19 21 48 19 20 34 44 34 52 0 10 11 3 30 -17 17 -19 27 -39 24
-48z m-1709 -15 c-14 -16 -16 -23 -7 -32 9 -9 15 -9 24 0 20 20 32 13 14 -7
-17 -19 -17 -20 3 -30 16 -9 23 -7 35 11 10 14 16 17 16 8 0 -7 -9 -23 -20
-35 l-21 -22 -39 39 c-25 25 -44 37 -52 32 -7 -4 0 7 16 24 17 18 34 32 39 32
6 0 2 -9 -8 -20z m1755 -74 c-21 -17 -39 -37 -39 -45 -1 -10 -4 -11 -15 -2
-11 9 -6 19 28 54 28 28 45 39 53 34 9 -7 2 -18 -27 -41z m-1789 -80 c5 -6 9
-15 9 -22 0 -9 -13 -9 -55 2 -31 8 -60 12 -66 8 -6 -3 -5 3 2 14 8 13 17 18
24 13 5 -5 25 -12 44 -16 36 -8 36 -7 0 46 -10 14 -16 29 -12 32 3 4 15 -10
25 -31 11 -20 24 -41 29 -46z m1896 -24 c-14 -14 -20 -14 -43 -2 -23 13 -27
13 -38 -2 -9 -13 -16 -14 -24 -6 -8 8 1 19 34 40 24 17 44 35 44 41 0 7 10 -3
22 -21 19 -31 20 -35 5 -50z m103 -129 c0 -13 -19 1 -23 18 l-5 20 -40 -20
c-22 -11 -42 -26 -44 -33 -3 -8 -10 -3 -18 12 -7 14 -9 22 -5 18 8 -8 80 25
89 41 3 5 -1 14 -9 21 -8 7 -12 17 -9 22 5 8 64 -84 64 -99z m-2090 51 c19
-11 37 -20 39 -21 1 -1 0 -6 -3 -12 -4 -6 -25 1 -53 19 -25 16 -50 27 -55 24
-5 -4 -4 3 3 14 10 16 15 18 23 8 6 -8 27 -22 46 -32z m-53 -83 c17 -7 37 -10
42 -6 13 8 14 -5 1 -25 -7 -12 -12 -12 -22 -2 -19 19 -34 15 -46 -13 -10 -21
-9 -26 9 -35 10 -6 24 -8 30 -4 7 4 7 -2 -1 -16 -8 -14 -15 -19 -19 -12 -9 16
-80 44 -91 37 -6 -3 -7 1 -4 10 5 12 14 14 33 10 23 -5 30 -1 39 19 10 23 9
26 -13 32 -28 7 -27 6 -19 28 5 14 8 14 18 3 6 -8 25 -20 43 -26z m2181 -48
c2 -13 -1 -23 -6 -23 -5 0 -9 7 -8 16 2 32 -24 27 -30 -5 -8 -39 -34 -55 -59
-37 -19 14 -17 48 3 52 7 1 8 0 2 -3 -19 -9 -11 -43 10 -43 14 0 20 7 20 23 0
48 62 65 68 20z m-2292 -105 c-20 -11 -21 -51 -2 -67 20 -17 67 -10 80 11 8
13 7 23 -2 39 -11 18 -11 20 0 17 22 -7 21 -55 -1 -77 -41 -41 -101 -15 -101
44 0 33 17 58 33 48 5 -3 2 -10 -7 -15z m2314 -52 c0 -8 -15 -17 -34 -20 -19
-4 -36 -12 -39 -19 -2 -6 -6 -2 -9 9 -4 16 0 20 19 22 14 1 32 6 41 12 22 12
22 12 22 -4z m15 -111 c0 -27 -4 -30 -33 -33 -35 -4 -57 9 -74 42 -10 20 -9
19 11 -1 24 -25 43 -30 40 -10 -4 31 2 38 29 35 23 -3 27 -8 27 -33z m-2274 1
c-7 -9 -21 -18 -32 -21 -28 -9 -23 -28 6 -23 19 4 25 1 25 -12 0 -16 -5 -17
-42 -8 -24 5 -51 7 -60 5 -12 -4 -18 1 -18 12 0 14 7 17 30 13 23 -3 30 -1 30
13 0 13 -6 16 -25 13 -14 -3 -25 -1 -25 4 0 16 32 21 52 9 16 -10 24 -9 41 2
26 17 35 14 18 -7z m2296 -115 c-1 -22 -17 -18 -17 5 0 21 -18 17 -30 -6 -12
-22 -40 -26 -58 -8 -19 19 -14 29 8 16 16 -11 23 -9 40 10 17 17 25 20 40 12
10 -5 18 -19 17 -29z m-2307 -21 c0 -13 -7 -20 -20 -20 -14 0 -20 -7 -20 -21
0 -12 8 -23 20 -26 11 -3 20 -11 20 -18 0 -8 -22 -1 -60 19 l-60 31 32 13 c18
6 44 18 58 26 14 8 26 15 28 15 1 1 2 -8 2 -19z m2314 -71 c14 -17 26 -36 26
-42 0 -7 -6 -3 -12 8 -6 11 -18 26 -26 33 -33 25 -90 6 -62 -21 9 -9 15 -8 25
6 7 10 16 14 19 8 3 -5 -1 -16 -10 -25 -19 -19 -54 -5 -54 22 0 49 57 56 94
11z m-2314 -195 c11 -12 10 -18 -3 -31 -8 -9 -23 -13 -31 -10 -19 8 -21 43 -3
50 20 9 24 8 37 -9z m2244 10 c20 -8 21 -43 1 -50 -24 -10 -47 14 -34 37 11
21 11 21 33 13z m-49 -282 c21 -23 36 -45 33 -47 -3 -3 -20 14 -38 37 l-34 42
-12 -28 c-6 -16 -14 -24 -18 -18 -7 12 14 64 24 60 3 -2 23 -22 45 -46z
m-2065 -11 c7 -13 7 -22 0 -26 -5 -3 -10 3 -10 15 0 30 -22 20 -32 -15 -11
-44 -36 -55 -62 -29 -21 20 -20 40 0 48 14 6 15 4 4 -9 -11 -13 -11 -19 3 -32
15 -15 17 -14 26 8 5 13 12 32 15 42 7 23 43 22 56 -2z m1982 -54 c-15 -17 -3
-30 14 -16 7 6 23 9 36 7 18 -2 24 -10 25 -33 3 -28 2 -28 -7 -7 -8 20 -15 22
-44 17 -39 -8 -49 3 -40 40 4 18 10 23 17 16 7 -7 7 -14 -1 -24z m-1928 -71
c-7 -19 -45 -21 -62 -4 -8 8 -15 8 -26 -1 -16 -13 -36 -7 -36 10 0 6 4 8 8 5
12 -7 82 42 82 57 0 7 9 -2 20 -19 11 -17 18 -39 14 -48z m1929 -14 c11 -10
17 -28 16 -51 l-1 -36 -8 35 c-8 35 -33 60 -58 60 -7 0 -12 -8 -10 -17 2 -11
12 -18 26 -17 25 1 30 -14 7 -22 -36 -14 -62 46 -28 65 19 10 27 7 56 -17z
m-1854 -73 c0 -8 -5 -4 -11 9 -12 24 -16 26 -37 13 -12 -8 -13 -12 -1 -25 7
-9 10 -19 6 -23 -3 -4 -12 1 -19 11 -12 16 -14 16 -26 2 -12 -14 -11 -19 4
-36 10 -11 14 -20 9 -20 -5 0 -22 17 -38 37 -16 20 -24 33 -18 29 15 -9 82 41
82 61 0 9 10 3 25 -15 14 -17 25 -36 24 -43z m1792 -28 c18 -6 18 -8 3 -26 -8
-11 -13 -15 -10 -8 7 14 -42 55 -56 47 -5 -3 -4 3 3 14 l13 21 14 -20 c8 -11
23 -24 33 -28z m-1773 -26 c-49 -27 -49 -95 0 -95 19 0 23 -3 15 -11 -15 -15
-51 6 -63 37 -15 39 17 84 60 83 8 0 3 -6 -12 -14z m72 -41 c0 -7 -5 -16 -12
-20 -7 -5 -9 -2 -5 8 3 9 -2 26 -11 39 l-16 24 22 -19 c12 -11 22 -25 22 -32z
m1548 18 c-36 -7 -19 -31 25 -34 37 -3 42 -6 42 -27 0 -30 -29 -51 -47 -33
-10 10 -8 12 12 10 16 -2 25 3 28 14 3 13 -6 17 -40 20 -32 2 -44 8 -46 21 -5
23 17 49 32 40 7 -5 5 -9 -6 -11z m-1492 -54 c10 -12 14 -18 8 -15 -12 7 -71
-61 -66 -76 1 -4 -8 -2 -20 4 -17 9 -19 14 -9 17 22 7 60 55 61 75 0 22 3 22
26 -5z m1429 2 c-4 -6 8 -28 26 -51 17 -22 30 -42 28 -44 -2 -2 -26 1 -53 6
-27 5 -51 7 -53 6 -8 -9 40 -57 50 -50 7 4 6 0 -2 -10 -12 -15 -15 -14 -35 16
-12 17 -32 37 -45 43 -35 18 -9 26 56 18 l56 -7 -19 26 c-10 15 -23 27 -28 27
-5 0 -3 7 4 15 14 17 24 20 15 5z m-1356 -128 c-11 -54 -15 -60 -31 -51 -17 9
-17 11 -2 26 15 15 15 18 -2 30 -15 11 -20 10 -34 -2 -10 -9 -20 -11 -30 -5
-13 8 -13 10 0 10 9 0 36 13 60 29 25 15 46 27 48 26 2 -2 -2 -30 -9 -63z
m1249 12 c34 -23 27 -83 -10 -104 -65 -36 -121 53 -62 99 32 25 42 26 72 5z
m-1128 -20 c0 -3 -4 -3 -10 1 -11 7 -53 -72 -45 -85 3 -6 13 -10 21 -10 8 0
12 -5 9 -10 -4 -7 -17 -4 -34 6 l-28 17 26 52 c21 43 29 50 44 43 9 -5 17 -11
17 -14z m978 -31 c-5 -16 32 -93 44 -93 9 0 8 -3 -2 -10 -20 -13 -30 -13 -30
0 0 6 -9 30 -20 52 -15 32 -17 44 -8 50 16 10 19 10 16 1z m-58 -33 c0 -5 -9
-10 -20 -10 -24 0 -25 -18 -5 -67 18 -43 19 -40 -2 -47 -10 -4 -15 -4 -11 -1
10 10 -22 95 -36 95 -7 0 -17 -5 -24 -12 -9 -9 -12 -9 -12 3 0 8 20 21 48 30
61 21 62 21 62 9z m-742 -12 c7 -7 12 -19 12 -27 0 -11 -5 -8 -16 7 -23 33
-65 26 -78 -11 -13 -36 3 -62 38 -62 14 1 26 -3 26 -7 0 -16 -51 -7 -70 12
-24 24 -25 48 -4 78 17 25 71 31 92 10z m134 -45 c25 -23 23 -68 -4 -87 -31
-22 -64 -20 -89 5 -54 54 36 134 93 82z m478 9 c0 -5 -13 -7 -30 -4 -24 3 -32
0 -41 -21 -24 -53 52 -108 80 -59 9 15 10 15 11 1 0 -31 -77 -41 -100 -14 -18
22 -15 62 5 85 18 19 75 28 75 12z m-390 -38 c-6 -14 -10 -39 -10 -55 0 -24 4
-29 26 -29 14 0 23 -4 20 -8 -2 -4 -23 -6 -46 -4 -24 3 -38 7 -32 11 6 4 12
30 14 59 2 41 7 52 20 52 15 0 16 -4 8 -26z m260 16 c0 -5 -6 -7 -12 -5 -7 3
-19 1 -27 -4 -18 -12 -6 -45 14 -37 8 3 15 1 15 -4 0 -6 -7 -10 -15 -10 -9 0
-15 -9 -15 -21 0 -17 5 -20 25 -17 14 3 25 2 25 -2 0 -4 -17 -10 -38 -12 -36
-3 -38 -2 -34 24 2 15 0 41 -6 57 -10 28 -9 30 16 34 48 7 52 7 52 -3z m-151
-42 c-13 -54 -6 -72 26 -66 13 3 22 1 19 -3 -3 -5 -23 -9 -44 -9 -38 0 -39 1
-30 26 14 35 12 81 -2 87 -7 3 -1 6 13 6 26 1 27 0 18 -41z"/>
<path d="M1510 2580 c0 -5 5 -10 10 -10 6 0 10 5 10 10 0 6 -4 10 -10 10 -5 0
-10 -4 -10 -10z"/>
<path d="M796 2415 c4 -8 10 -12 15 -9 11 6 2 24 -11 24 -5 0 -7 -7 -4 -15z"/>
<path d="M1140 2092 c28 -22 30 -70 4 -89 -10 -7 -13 -13 -7 -13 18 0 43 36
43 63 0 15 -9 32 -22 41 -31 22 -45 20 -18 -2z"/>
<path d="M968 2045 c-2 -44 0 -55 12 -55 12 0 14 11 12 55 -2 30 -8 55 -12 55
-4 0 -10 -25 -12 -55z"/>
<path d="M1072 2088 c-27 -27 -9 -98 25 -98 8 0 6 7 -7 20 -22 22 -25 42 -10
71 12 22 9 24 -8 7z"/>
<path d="M1210 2057 c0 -24 5 -48 12 -55 13 -13 64 -16 71 -4 3 4 -9 7 -26 7
-31 0 -32 1 -35 48 -4 59 -22 62 -22 4z"/>
<path d="M1303 2060 c0 -25 2 -35 4 -22 2 12 2 32 0 45 -2 12 -4 2 -4 -23z"/>
<path d="M1350 2097 c0 -2 22 -28 50 -58 l50 -54 -2 60 c-1 52 -2 55 -7 22
l-6 -38 -34 35 c-30 31 -51 44 -51 33z"/>
<path d="M1498 2045 l-3 -55 36 0 c42 0 69 24 69 61 0 25 -16 49 -32 49 -5 0
-1 -11 8 -25 23 -35 6 -75 -31 -75 -23 0 -25 3 -25 50 0 68 -17 64 -22 -5z"/>
<path d="M1635 2045 l0 -55 32 0 c17 0 34 4 37 8 3 5 -8 6 -25 4 -29 -4 -29
-4 -29 47 0 28 -3 51 -7 51 -5 0 -8 -25 -8 -55z"/>
<path d="M1745 2072 c3 -16 1 -41 -4 -55 -10 -26 -10 -27 27 -27 21 0 47 6 57
14 22 16 25 74 4 87 -23 14 -32 10 -15 -7 33 -32 14 -84 -31 -84 -21 0 -23 4
-23 50 0 29 -5 50 -11 50 -6 0 -8 -11 -4 -28z"/>
<path d="M1355 2000 c-3 -5 -1 -10 4 -10 6 0 11 5 11 10 0 6 -2 10 -4 10 -3 0
-8 -4 -11 -10z"/>
<path d="M719 1716 c6 -8 10 -35 8 -65 l-4 -51 41 2 c37 1 38 2 9 5 -33 4 -33
5 -33 58 0 33 5 55 13 58 6 3 -1 6 -17 6 -23 1 -26 -2 -17 -13z"/>
<path d="M910 1721 c0 -4 11 -6 25 -3 24 4 25 3 25 -57 0 -42 4 -61 13 -61 8
0 11 17 9 59 -4 59 -3 60 25 64 15 2 0 5 -34 6 -35 0 -63 -3 -63 -8z"/>
<path d="M1072 1707 c-12 -13 -22 -32 -22 -43 0 -26 27 -64 46 -64 10 0 9 5
-6 20 -27 27 -26 75 2 94 12 9 18 16 12 16 -6 0 -20 -10 -32 -23z"/>
<path d="M1148 1713 c32 -28 38 -67 13 -92 -12 -12 -17 -21 -13 -21 18 0 42
38 42 67 0 30 -26 63 -49 63 -8 0 -5 -7 7 -17z"/>
<path d="M1229 1721 c9 -6 12 -25 10 -65 -2 -31 -1 -56 4 -56 4 0 7 19 7 43
l1 42 23 -44 c13 -24 26 -39 29 -34 10 16 -52 123 -71 123 -13 0 -14 -2 -3 -9z"/>
<path d="M1330 1693 c-22 -56 -23 -61 -6 -33 l15 25 2 -25 c1 -14 2 -33 1 -42
-1 -10 4 -18 11 -18 8 0 12 20 12 65 0 74 -14 84 -35 28z"/>
<path d="M1470 1715 c8 -10 11 -33 8 -65 -3 -33 -1 -50 6 -50 7 0 10 21 8 61
-4 55 -2 60 15 57 12 -2 18 -12 18 -31 -1 -33 19 -30 23 3 4 28 -12 40 -57 40
-29 0 -32 -2 -21 -15z"/>
<path d="M1589 1721 c9 -6 12 -25 10 -65 -4 -48 -2 -56 14 -56 14 0 16 4 7 19
-16 30 -12 39 18 44 l27 4 -27 2 c-28 1 -35 15 -19 40 5 8 18 12 30 8 12 -3
21 -1 21 4 0 5 -21 9 -47 9 -31 0 -43 -3 -34 -9z"/>
<path d="M1721 1709 c7 -13 9 -40 5 -65 -4 -32 -2 -44 7 -44 9 0 12 17 9 60
-3 55 -1 60 18 60 28 0 36 -26 16 -49 -15 -17 -15 -20 5 -44 11 -15 25 -27 30
-27 6 0 1 12 -10 26 -19 24 -19 27 -4 50 21 33 3 54 -49 54 -37 0 -38 -1 -27
-21z"/>
<path d="M1858 1665 c2 -41 8 -65 16 -65 8 0 10 19 8 60 -2 54 -1 60 17 60 26
0 35 -29 16 -50 -14 -15 -13 -19 6 -43 11 -15 25 -27 30 -27 6 0 1 12 -10 26
-16 20 -18 30 -10 40 6 7 9 23 7 36 -2 19 -10 24 -43 26 l-40 3 3 -66z"/>
<path d="M2006 1695 c19 -25 25 -43 22 -65 -3 -20 0 -30 9 -30 8 0 13 12 13
34 0 22 9 45 26 65 20 24 22 31 10 31 -9 0 -16 -6 -16 -12 0 -7 -7 -22 -15
-33 -15 -18 -16 -18 -27 13 -8 20 -19 32 -31 32 -16 0 -15 -4 9 -35z"/>
<path d="M1660 1610 c-9 -6 -10 -10 -3 -10 6 0 15 5 18 10 8 12 4 12 -15 0z"/>
<path d="M743 1480 c-24 -10 -39 -50 -29 -75 3 -9 21 -25 41 -36 50 -30 61
-53 35 -79 -13 -13 -15 -20 -7 -20 22 0 37 23 37 56 0 25 -9 39 -45 68 -49 41
-56 60 -25 76 22 12 54 0 63 -22 3 -7 6 -3 6 8 1 14 -7 24 -21 28 -28 7 -27 7
-55 -4z"/>
<path d="M1439 1477 c18 -7 39 -21 47 -32 14 -18 14 -18 14 2 0 27 -5 30 -55
37 l-40 6 34 -13z"/>
<path d="M908 1468 c16 -16 16 -170 0 -186 -9 -9 -4 -12 22 -12 26 0 31 3 22
12 -8 8 -12 45 -12 100 0 85 1 88 23 88 13 0 28 -5 35 -12 18 -18 15 -65 -5
-77 -10 -6 -13 -11 -8 -11 22 0 55 32 55 54 0 37 -30 56 -90 56 -42 0 -51 -3
-42 -12z"/>
<path d="M1118 1473 c8 -3 12 -33 12 -98 0 -65 -4 -95 -12 -98 -7 -3 20 -6 60
-6 39 -1 72 3 72 8 0 5 -20 6 -45 3 l-45 -5 0 97 0 98 40 -3 c21 -2 42 0 46 4
4 4 -26 7 -67 6 -41 0 -68 -3 -61 -6z"/>
<path d="M1344 1446 c-28 -28 -34 -42 -34 -76 0 -52 42 -100 87 -100 l28 1
-30 13 c-36 15 -55 52 -55 104 1 40 13 62 45 80 12 7 14 12 7 12 -8 0 -29 -15
-48 -34z"/>
<path d="M1588 1468 c7 -7 12 -43 12 -93 0 -50 -5 -86 -12 -93 -9 -9 -4 -12
22 -12 26 0 31 3 22 12 -7 7 -12 43 -12 93 0 50 5 86 12 93 9 9 4 12 -22 12
-26 0 -31 -3 -22 -12z"/>
<path d="M1801 1459 c-30 -78 -74 -166 -88 -176 -15 -11 -12 -13 18 -13 20 0
29 3 22 8 -10 6 -10 15 -1 40 11 28 17 32 49 32 31 0 38 -4 49 -29 6 -17 9
-35 5 -40 -4 -7 8 -11 32 -11 28 1 34 3 22 10 -9 5 -31 49 -49 97 -38 104 -46
114 -59 82z m29 -86 c0 -8 -12 -13 -29 -13 l-29 0 16 42 16 41 13 -29 c7 -16
12 -35 13 -41z"/>
<path d="M1988 1468 c7 -7 12 -44 12 -95 0 -68 -3 -84 -17 -92 -13 -8 2 -10
60 -11 66 0 77 2 77 17 0 13 -3 14 -12 5 -18 -18 -75 -15 -82 4 -11 29 -6 160
6 172 9 9 4 12 -22 12 -26 0 -31 -3 -22 -12z"/>
<path d="M1214 1389 c-3 -6 -1 -16 5 -22 8 -8 11 -5 11 11 0 24 -5 28 -16 11z"/>
<path d="M700 1308 c0 -18 6 -29 21 -33 11 -4 23 -4 26 -1 4 3 1 6 -5 6 -6 0
-18 12 -26 28 l-15 27 -1 -27z"/>
<path d="M1487 1307 c-4 -10 -17 -22 -29 -27 -22 -8 -22 -9 5 -9 28 -1 43 17
35 41 -3 8 -7 6 -11 -5z"/>
<path d="M711 1134 c-12 -15 -21 -34 -21 -43 0 -23 28 -61 46 -61 10 0 9 5 -6
20 -11 11 -20 31 -20 45 0 14 9 34 20 45 11 11 16 20 11 20 -5 0 -19 -12 -30
-26z"/>
<path d="M786 1146 c21 -15 30 -14 19 3 -3 6 -14 11 -23 11 -13 0 -13 -2 4
-14z"/>
<path d="M920 1153 c40 -14 53 -72 23 -105 -16 -18 -16 -18 0 -12 21 8 37 35
37 63 0 26 -34 61 -57 60 -14 0 -15 -2 -3 -6z"/>
<path d="M1009 1151 c9 -6 12 -25 10 -65 l-4 -56 37 0 c20 0 39 4 42 9 3 4 -6
6 -20 3 -16 -3 -30 1 -35 9 -12 19 -11 66 1 90 9 17 7 19 -17 19 -19 0 -24 -3
-14 -9z"/>
<path d="M1128 1095 l4 -65 39 0 c21 0 39 4 39 8 0 5 -14 6 -31 4 l-31 -5 4
62 c2 49 0 61 -12 61 -12 0 -14 -12 -12 -65z"/>
<path d="M1238 1095 c3 -43 8 -65 16 -65 8 0 11 10 8 29 -3 24 0 30 19 34 24
4 24 4 2 6 -18 1 -23 7 -23 27 0 23 3 26 30 22 17 -3 30 -1 30 4 0 4 -19 8
-42 8 l-43 0 3 -65z"/>
<path d="M1361 1134 c-12 -15 -21 -34 -21 -43 0 -23 28 -61 46 -61 10 0 9 5
-6 20 -11 11 -20 31 -20 45 0 14 9 34 20 45 11 11 16 20 11 20 -5 0 -19 -12
-30 -26z"/>
<path d="M1436 1146 c21 -15 30 -14 19 3 -3 6 -14 11 -23 11 -13 0 -13 -2 4
-14z"/>
<path d="M1480 1152 c0 -5 14 -6 31 -4 l31 5 -4 -62 c-2 -36 1 -61 7 -61 6 0
9 25 7 61 l-4 62 31 -5 c17 -2 31 -1 31 4 0 4 -29 8 -65 8 -36 0 -65 -4 -65
-8z"/>
<path d="M1640 1145 c7 -8 11 -35 8 -65 -2 -29 1 -50 7 -50 6 0 9 23 6 56 -2
40 1 59 10 65 10 6 5 9 -15 9 -24 0 -27 -2 -16 -15z"/>
<path d="M1790 1153 c40 -14 53 -72 23 -105 -16 -18 -16 -18 0 -12 21 8 37 35
37 63 0 26 -34 61 -57 60 -14 0 -15 -2 -3 -6z"/>
<path d="M1880 1145 c7 -8 11 -35 8 -65 -1 -27 0 -50 5 -50 4 0 7 21 7 48 l0
47 46 -47 c25 -27 47 -48 49 -48 2 0 5 29 7 65 3 60 1 65 -17 64 -11 0 -14 -3
-7 -6 7 -3 12 -23 12 -51 l0 -47 -46 53 c-25 28 -53 52 -61 52 -12 0 -13 -3
-3 -15z"/>
<path d="M2052 1148 c-19 -19 -14 -36 19 -60 19 -15 29 -29 25 -40 -2 -10 0
-16 5 -12 19 11 9 52 -17 69 -18 11 -24 23 -21 36 6 22 5 23 -11 7z"/>
<path d="M2095 1150 c3 -5 8 -10 11 -10 2 0 4 5 4 10 0 6 -5 10 -11 10 -5 0
-7 -4 -4 -10z"/>
<path d="M852 1138 c-17 -17 -15 -74 4 -92 26 -26 36 -18 14 12 -16 22 -18 33
-11 60 11 36 10 37 -7 20z"/>
<path d="M1722 1138 c-17 -17 -15 -74 4 -92 26 -27 36 -18 13 13 -18 25 -20
34 -11 60 12 34 11 36 -6 19z"/>
<path d="M2040 1045 c0 -8 4 -15 10 -15 5 0 7 7 4 15 -4 8 -8 15 -10 15 -2 0
-4 -7 -4 -15z"/>
<path d="M790 1040 c-13 -8 -12 -10 3 -10 9 0 17 5 17 10 0 12 -1 12 -20 0z"/>
<path d="M1440 1040 c-13 -8 -12 -10 3 -10 9 0 17 5 17 10 0 12 -1 12 -20 0z"/>
<path d="M1298 1033 c7 -3 16 -2 19 1 4 3 -2 6 -13 5 -11 0 -14 -3 -6 -6z"/>
<path d="M1556 801 c-49 -33 -71 -92 -44 -119 20 -20 27 -14 16 16 -14 37 3
77 44 102 18 11 29 20 23 20 -5 0 -23 -9 -39 -19z"/>
<path d="M1305 764 c-26 -26 -15 -59 20 -61 27 -2 28 -2 8 7 -27 11 -31 48 -7
57 23 9 45 -24 38 -56 -3 -14 -20 -39 -37 -55 l-32 -28 32 16 c38 19 53 43 53
83 0 50 -41 70 -75 37z"/>
<path d="M1422 768 c-19 -19 -14 -41 16 -64 24 -20 25 -25 14 -43 -7 -13 -8
-21 -2 -21 6 0 16 12 22 26 11 24 10 29 -20 54 -39 32 -40 42 -5 38 14 -2 28
2 30 7 5 15 -41 17 -55 3z"/>
<path d="M1228 720 c-2 -39 0 -50 12 -50 12 0 14 11 12 50 -2 27 -8 50 -12 50
-4 0 -10 -23 -12 -50z"/>
<path d="M1544 738 c-4 -7 -3 -8 4 -4 18 11 36 -32 20 -51 -11 -14 -11 -15 2
-11 19 6 26 58 8 69 -18 12 -26 11 -34 -3z"/>
<path d="M2206 2301 c-12 -13 -14 -21 -6 -26 16 -10 40 2 40 19 0 24 -16 27
-34 7z"/>
<path d="M2375 2116 c-14 -10 -17 -18 -10 -25 14 -14 38 2 33 23 -3 15 -5 15
-23 2z"/>
<path d="M2554 1622 c-6 -4 -14 -15 -17 -26 -6 -14 -4 -17 9 -12 8 3 20 6 25
6 11 0 12 27 1 34 -4 2 -13 2 -18 -2z"/>
<path d="M220 1430 c0 -5 7 -10 15 -10 8 0 15 5 15 10 0 6 -7 10 -15 10 -8 0
-15 -4 -15 -10z"/>
<path d="M435 817 c-13 -10 -15 -16 -6 -21 17 -11 41 0 41 19 0 19 -11 19 -35
2z"/>
<path d="M745 481 c-3 -5 -1 -12 4 -15 5 -3 11 1 15 9 6 16 -9 21 -19 6z"/>
<path d="M1950 445 c-15 -19 -4 -52 24 -70 29 -19 54 -10 62 22 12 47 -55 85
-86 48z"/>
<path d="M1128 305 c-23 -51 32 -101 70 -63 15 15 15 61 0 76 -21 21 -57 14
-70 -13z"/>
</g>
</svg>
